<svg xmlns="http://www.w3.org/2000/svg" xmlns:xlink="http://www.w3.org/1999/xlink" preserveAspectRatio="xMidYMid" width="800" height="800" viewBox="0 0 800 800">
  <defs>
    <style>
      .cls-1 {
        fill: #fff;
      }

      .cls-1, .cls-2 {
        fill-rule: evenodd;
      }

      .cls-2 {
        fill: #464646;
      }
    </style>
  </defs>
<path d="M622.000,700.000 L180.000,700.000 C135.817,700.000 100.000,664.183 100.000,620.000 L100.000,180.000 C100.000,135.817 135.817,100.000 180.000,100.000 L622.000,100.000 C666.183,100.000 702.000,135.817 702.000,180.000 L702.000,620.000 C702.000,664.183 666.183,700.000 622.000,700.000 ZM587.248,158.696 C540.464,120.532 500.282,141.511 470.263,169.119 L458.878,159.395 C442.917,145.763 418.927,147.651 405.295,163.613 L382.257,190.587 C368.625,206.548 370.513,230.538 386.475,244.170 L396.133,252.419 C313.725,348.838 130.271,563.850 130.271,563.850 L138.949,648.955 L158.195,665.393 L255.195,655.744 L285.812,619.896 L281.899,569.707 L332.082,565.719 L340.229,556.180 L338.704,556.302 L334.771,505.850 L385.217,501.841 L385.335,503.366 L393.329,494.007 L393.044,494.030 L389.041,443.045 L440.024,439.022 L440.046,439.307 L456.174,420.423 C465.825,420.648 562.035,473.279 633.379,390.481 C701.781,312.742 684.384,231.165 587.248,158.696 ZM555.834,342.737 C546.746,353.378 530.752,354.637 520.111,345.549 L389.691,234.162 C379.050,225.074 377.792,209.080 386.880,198.439 L414.267,166.372 C423.355,155.731 439.349,154.472 449.990,163.560 L580.410,274.947 C591.051,284.035 592.310,300.029 583.222,310.669 L555.834,342.737 Z" class="cls-1"/>
  <path d="M590.074,321.670 L567.508,348.187 C554.156,363.878 530.521,365.697 514.719,352.249 L385.008,241.869 C369.206,228.421 367.220,204.800 380.573,189.109 L403.138,162.592 C416.491,146.901 440.125,145.082 455.928,158.529 L585.638,268.910 C601.441,282.357 603.426,305.979 590.074,321.670 ZM575.228,271.481 L456.009,170.028 C442.840,158.822 423.145,160.338 412.017,173.414 L393.482,195.196 C382.354,208.271 384.009,227.956 397.178,239.162 L516.397,340.615 C529.566,351.821 549.261,350.305 560.389,337.229 L578.924,315.448 C590.052,302.372 588.397,282.687 575.228,271.481 Z" class="cls-2"/>  
  
</svg>
