<svg xmlns="http://www.w3.org/2000/svg" xmlns:xlink="http://www.w3.org/1999/xlink" preserveAspectRatio="xMidYMid" width="605" height="685" viewBox="0 0 605 685">
  <defs>
    <style>
      .cls-1 {
        fill: #fff;
      }

      .cls-1, .cls-2 {
        fill-rule: evenodd;
      }

      .cls-2 {
        fill: #464646;
      }
    </style>
  </defs>
  <path d="M473.382,156.695 C473.000,265.989 365.680,288.545 358.201,294.649 L358.220,315.867 L358.016,315.664 L318.280,355.485 L358.087,395.236 L358.290,395.033 L358.294,400.145 L357.212,399.063 L317.914,438.488 L357.281,477.844 L358.362,476.761 L358.373,489.137 L319.254,528.382 L358.442,567.559 L358.474,604.114 L291.042,674.506 L265.732,674.528 L203.810,615.503 C203.810,615.503 203.404,317.766 203.353,196.327 L358.106,196.190 C372.100,196.178 383.434,184.824 383.422,170.830 L383.384,128.659 C383.372,114.665 372.018,103.331 358.024,103.343 L204.634,103.479 C208.127,60.489 222.822,12.087 287.644,10.566 C408.565,2.481 474.818,53.157 473.382,156.695 Z" class="cls-1"/>
  <path d="M401.901,171.349 C401.841,194.973 383.159,214.071 360.173,214.006 L171.501,213.469 C148.515,213.403 129.930,194.199 129.990,170.576 L130.092,130.653 C130.151,107.029 148.834,87.931 171.819,87.997 L360.492,88.534 C383.477,88.599 402.062,107.803 402.002,131.427 L401.901,171.349 ZM361.188,140.232 C361.113,127.599 348.852,117.368 333.801,117.379 L197.543,117.485 C182.492,117.496 170.352,127.747 170.426,140.380 L170.550,161.424 C170.625,174.057 182.886,184.289 197.937,184.277 L334.195,184.171 C349.245,184.160 361.386,173.909 361.312,161.276 L361.188,140.232 Z" class="cls-2"/>
</svg>
